# WaveFront *.obj file (generated by CINEMA 4D)

mtllib ./testFloor.mtl

v -100 170.70941162109375 100
v -100 185.16552734375 100
v 100 170.70941162109375 100
v 100 185.16552734375 100
v 100 170.70941162109375 -100
v 100 185.16552734375 -100
v -100 170.70941162109375 -100
v -100 185.16552734375 -100
# 8 vertices

vn 0 0 1
vn 1 0 0
vn 0 0 -1
vn -1 0 0
vn 0 1 0
vn 0 -1 0
# 6 normals

vt 0 0 0
vt 0 1 0
vt 1 1 0
vt 1 0 0
# 4 texture coordinates

o main.7
usemtl 材质.1
f 3/4/1 4/3/1 2/2/1 1/1/1
f 5/4/2 6/3/2 4/2/2 3/1/2
f 7/4/3 8/3/3 6/2/3 5/1/3
f 1/4/4 2/3/4 8/2/4 7/1/4
f 4/4/5 6/3/5 8/2/5 2/1/5
f 5/4/6 3/3/6 1/2/6 7/1/6

v -100 145.34202575683594 100
v -100 159.79814147949219 100
v 100 145.34202575683594 100
v 100 159.79814147949219 100
v 100 145.34202575683594 -100
v 100 159.79814147949219 -100
v -100 145.34202575683594 -100
v -100 159.79814147949219 -100
# 8 vertices

# 0 normal

# 0 texture coordinate

o main.6
usemtl 材质.1
f 11/4/1 12/3/1 10/2/1 9/1/1
f 13/4/2 14/3/2 12/2/2 11/1/2
f 15/4/3 16/3/3 14/2/3 13/1/3
f 9/4/4 10/3/4 16/2/4 15/1/4
f 12/4/5 14/3/5 16/2/5 10/1/5
f 13/4/6 11/3/6 9/2/6 15/1/6

v -100 121.67295837402344 100
v -100 136.12907409667969 100
v 100 121.67295837402344 100
v 100 136.12907409667969 100
v 100 121.67295837402344 -100
v 100 136.12907409667969 -100
v -100 121.67295837402344 -100
v -100 136.12907409667969 -100
# 8 vertices

# 0 normal

# 0 texture coordinate

o main.5
usemtl 材质.1
f 19/4/1 20/3/1 18/2/1 17/1/1
f 21/4/2 22/3/2 20/2/2 19/1/2
f 23/4/3 24/3/3 22/2/3 21/1/3
f 17/4/4 18/3/4 24/2/4 23/1/4
f 20/4/5 22/3/5 24/2/5 18/1/5
f 21/4/6 19/3/6 17/2/6 23/1/6

v -100 97.76100158691406 100
v -100 112.21711730957031 100
v 100 97.76100158691406 100
v 100 112.21711730957031 100
v 100 97.76100158691406 -100
v 100 112.21711730957031 -100
v -100 97.76100158691406 -100
v -100 112.21711730957031 -100
# 8 vertices

# 0 normal

# 0 texture coordinate

o main.4
usemtl 材质.1
f 27/4/1 28/3/1 26/2/1 25/1/1
f 29/4/2 30/3/2 28/2/2 27/1/2
f 31/4/3 32/3/3 30/2/3 29/1/3
f 25/4/4 26/3/4 32/2/4 31/1/4
f 28/4/5 30/3/5 32/2/5 26/1/5
f 29/4/6 27/3/6 25/2/6 31/1/6

v -100 73.67255401611328 100
v -100 88.12866973876953 100
v 100 73.67255401611328 100
v 100 88.12866973876953 100
v 100 73.67255401611328 -100
v 100 88.12866973876953 -100
v -100 73.67255401611328 -100
v -100 88.12866973876953 -100
# 8 vertices

# 0 normal

# 0 texture coordinate

o main.3
usemtl 材质.1
f 35/4/1 36/3/1 34/2/1 33/1/1
f 37/4/2 38/3/2 36/2/2 35/1/2
f 39/4/3 40/3/3 38/2/3 37/1/3
f 33/4/4 34/3/4 40/2/4 39/1/4
f 36/4/5 38/3/5 40/2/5 34/1/5
f 37/4/6 35/3/6 33/2/6 39/1/6

v -100 51.23080444335938 100
v -100 65.68692016601562 100
v 100 51.23080444335938 100
v 100 65.68692016601562 100
v 100 51.23080444335938 -100
v 100 65.68692016601562 -100
v -100 51.23080444335938 -100
v -100 65.68692016601562 -100
# 8 vertices

# 0 normal

# 0 texture coordinate

o main.2
usemtl 材质.1
f 43/4/1 44/3/1 42/2/1 41/1/1
f 45/4/2 46/3/2 44/2/2 43/1/2
f 47/4/3 48/3/3 46/2/3 45/1/3
f 41/4/4 42/3/4 48/2/4 47/1/4
f 44/4/5 46/3/5 48/2/5 42/1/5
f 45/4/6 43/3/6 41/2/6 47/1/6

v -100 28.39767456054688 100
v -100 42.85379409790039 100
v 100 28.39767456054688 100
v 100 42.85379409790039 100
v 100 28.39767456054688 -100
v 100 42.85379409790039 -100
v -100 28.39767456054688 -100
v -100 42.85379409790039 -100
# 8 vertices

# 0 normal

# 0 texture coordinate

o main.1
usemtl 材质.1
f 51/4/1 52/3/1 50/2/1 49/1/1
f 53/4/2 54/3/2 52/2/2 51/1/2
f 55/4/3 56/3/3 54/2/3 53/1/3
f 49/4/4 50/3/4 56/2/4 55/1/4
f 52/4/5 54/3/5 56/2/5 50/1/5
f 53/4/6 51/3/6 49/2/6 55/1/6

v -100 7.20924472808838 100
v -100 21.66536331176758 100
v 100 7.20924472808838 100
v 100 21.66536331176758 100
v 100 7.20924472808838 -100
v 100 21.66536331176758 -100
v -100 7.20924472808838 -100
v -100 21.66536331176758 -100
# 8 vertices

# 0 normal

# 0 texture coordinate

o main
usemtl 材质.1
f 59/4/1 60/3/1 58/2/1 57/1/1
f 61/4/2 62/3/2 60/2/2 59/1/2
f 63/4/3 64/3/3 62/2/3 61/1/3
f 57/4/4 58/3/4 64/2/4 63/1/4
f 60/4/5 62/3/5 64/2/5 58/1/5
f 61/4/6 59/3/6 57/2/6 63/1/6

v -106.88865661621094 148.99896240234375 -578.98968505859375
v -106.88865661621094 194.67485046386719 -578.98968505859375
v 93.11134338378906 148.99896240234375 -578.98968505859375
v 93.11134338378906 194.67485046386719 -578.98968505859375
v 93.11134338378906 148.99896240234375 -778.98968505859375
v 93.11134338378906 194.67485046386719 -778.98968505859375
v -106.88865661621094 148.99896240234375 -778.98968505859375
v -106.88865661621094 194.67485046386719 -778.98968505859375
v -106.88865661621094 84.03794097900391 -578.98968505859375
v -106.88865661621094 129.71382141113281 -578.98968505859375
v 93.11134338378906 84.03794097900391 -578.98968505859375
v 93.11134338378906 129.71382141113281 -578.98968505859375
v 93.11134338378906 84.03794097900391 -778.98968505859375
v 93.11134338378906 129.71382141113281 -778.98968505859375
v -106.88865661621094 84.03794097900391 -778.98968505859375
v -106.88865661621094 129.71382141113281 -778.98968505859375
v -106.88865661621094 131.97799682617188 -578.98968505859375
v -106.88865661621094 146.19659423828125 -578.98968505859375
v 93.11134338378906 131.97799682617188 -578.98968505859375
v 93.11134338378906 146.19659423828125 -578.98968505859375
v 93.11134338378906 131.97799682617188 -778.98968505859375
v 93.11134338378906 146.19659423828125 -778.98968505859375
v -106.88865661621094 131.97799682617188 -778.98968505859375
v -106.88865661621094 146.19659423828125 -778.98968505859375
v -106.88865661621094 67.54459381103516 -578.98968505859375
v -106.88865661621094 81.76319122314453 -578.98968505859375
v 93.11134338378906 67.54459381103516 -578.98968505859375
v 93.11134338378906 81.76319122314453 -578.98968505859375
v 93.11134338378906 67.54459381103516 -778.98968505859375
v 93.11134338378906 81.76319122314453 -778.98968505859375
v -106.88865661621094 67.54459381103516 -778.98968505859375
v -106.88865661621094 81.76319122314453 -778.98968505859375
v -106.88865661621094 19.60453605651855 -578.98968505859375
v -106.88865661621094 65.28041839599609 -578.98968505859375
v 93.11134338378906 19.60453605651855 -578.98968505859375
v 93.11134338378906 65.28041839599609 -578.98968505859375
v 93.11134338378906 19.60453605651855 -778.98968505859375
v 93.11134338378906 65.28041839599609 -778.98968505859375
v -106.88865661621094 19.60453605651855 -778.98968505859375
v -106.88865661621094 65.28041839599609 -778.98968505859375
v -106.88865661621094 3.39213156700134 -578.98968505859375
v -106.88865661621094 17.61073112487793 -578.98968505859375
v 93.11134338378906 3.39213156700134 -578.98968505859375
v 93.11134338378906 17.61073112487793 -578.98968505859375
v 93.11134338378906 3.39213156700134 -778.98968505859375
v 93.11134338378906 17.61073112487793 -778.98968505859375
v -106.88865661621094 3.39213156700134 -778.98968505859375
v -106.88865661621094 17.61073112487793 -778.98968505859375
# 48 vertices

# 0 normal

# 0 texture coordinate

o no01
usemtl 材质.2
f 67/4/1 68/3/1 66/2/1 65/1/1
f 69/4/2 70/3/2 68/2/2 67/1/2
f 71/4/3 72/3/3 70/2/3 69/1/3
f 65/4/4 66/3/4 72/2/4 71/1/4
f 68/4/5 70/3/5 72/2/5 66/1/5
f 69/4/6 67/3/6 65/2/6 71/1/6
f 75/4/1 76/3/1 74/2/1 73/1/1
f 77/4/2 78/3/2 76/2/2 75/1/2
f 79/4/3 80/3/3 78/2/3 77/1/3
f 73/4/4 74/3/4 80/2/4 79/1/4
f 76/4/5 78/3/5 80/2/5 74/1/5
f 77/4/6 75/3/6 73/2/6 79/1/6
f 99/4/1 100/3/1 98/2/1 97/1/1
f 101/4/2 102/3/2 100/2/2 99/1/2
f 103/4/3 104/3/3 102/2/3 101/1/3
f 97/4/4 98/3/4 104/2/4 103/1/4
f 100/4/5 102/3/5 104/2/5 98/1/5
f 101/4/6 99/3/6 97/2/6 103/1/6

usemtl 材质.1
f 83/4/1 84/3/1 82/2/1 81/1/1
f 85/4/2 86/3/2 84/2/2 83/1/2
f 87/4/3 88/3/3 86/2/3 85/1/3
f 81/4/4 82/3/4 88/2/4 87/1/4
f 84/4/5 86/3/5 88/2/5 82/1/5
f 85/4/6 83/3/6 81/2/6 87/1/6
f 91/4/1 92/3/1 90/2/1 89/1/1
f 93/4/2 94/3/2 92/2/2 91/1/2
f 95/4/3 96/3/3 94/2/3 93/1/3
f 89/4/4 90/3/4 96/2/4 95/1/4
f 92/4/5 94/3/5 96/2/5 90/1/5
f 93/4/6 91/3/6 89/2/6 95/1/6

usemtl 材质.1_1
f 107/4/1 108/3/1 106/2/1 105/1/1
f 109/4/2 110/3/2 108/2/2 107/1/2
f 111/4/3 112/3/3 110/2/3 109/1/3
f 105/4/4 106/3/4 112/2/4 111/1/4
f 108/4/5 110/3/5 112/2/5 106/1/5
f 109/4/6 107/3/6 105/2/6 111/1/6

v -831.4241943359375 148.99896240234375 -578.98968505859375
v -831.4241943359375 194.67485046386719 -578.98968505859375
v -631.4241943359375 148.99896240234375 -578.98968505859375
v -631.4241943359375 194.67485046386719 -578.98968505859375
v -631.4241943359375 148.99896240234375 -778.98968505859375
v -631.4241943359375 194.67485046386719 -778.98968505859375
v -831.4241943359375 148.99896240234375 -778.98968505859375
v -831.4241943359375 194.67485046386719 -778.98968505859375
v -831.4241943359375 84.03794097900391 -578.98968505859375
v -831.4241943359375 129.71382141113281 -578.98968505859375
v -631.4241943359375 84.03794097900391 -578.98968505859375
v -631.4241943359375 129.71382141113281 -578.98968505859375
v -631.4241943359375 84.03794097900391 -778.98968505859375
v -631.4241943359375 129.71382141113281 -778.98968505859375
v -831.4241943359375 84.03794097900391 -778.98968505859375
v -831.4241943359375 129.71382141113281 -778.98968505859375
v -831.4241943359375 131.97799682617188 -578.98968505859375
v -831.4241943359375 146.19659423828125 -578.98968505859375
v -631.4241943359375 131.97799682617188 -578.98968505859375
v -631.4241943359375 146.19659423828125 -578.98968505859375
v -631.4241943359375 131.97799682617188 -778.98968505859375
v -631.4241943359375 146.19659423828125 -778.98968505859375
v -831.4241943359375 131.97799682617188 -778.98968505859375
v -831.4241943359375 146.19659423828125 -778.98968505859375
v -831.4241943359375 67.54459381103516 -578.98968505859375
v -831.4241943359375 81.76319122314453 -578.98968505859375
v -631.4241943359375 67.54459381103516 -578.98968505859375
v -631.4241943359375 81.76319122314453 -578.98968505859375
v -631.4241943359375 67.54459381103516 -778.98968505859375
v -631.4241943359375 81.76319122314453 -778.98968505859375
v -831.4241943359375 67.54459381103516 -778.98968505859375
v -831.4241943359375 81.76319122314453 -778.98968505859375
v -831.4241943359375 19.60453605651855 -578.98968505859375
v -831.4241943359375 65.28041839599609 -578.98968505859375
v -631.4241943359375 19.60453605651855 -578.98968505859375
v -631.4241943359375 65.28041839599609 -578.98968505859375
v -631.4241943359375 19.60453605651855 -778.98968505859375
v -631.4241943359375 65.28041839599609 -778.98968505859375
v -831.4241943359375 19.60453605651855 -778.98968505859375
v -831.4241943359375 65.28041839599609 -778.98968505859375
v -831.4241943359375 3.39213156700134 -578.98968505859375
v -831.4241943359375 17.61073112487793 -578.98968505859375
v -631.4241943359375 3.39213156700134 -578.98968505859375
v -631.4241943359375 17.61073112487793 -578.98968505859375
v -631.4241943359375 3.39213156700134 -778.98968505859375
v -631.4241943359375 17.61073112487793 -778.98968505859375
v -831.4241943359375 3.39213156700134 -778.98968505859375
v -831.4241943359375 17.61073112487793 -778.98968505859375
# 48 vertices

# 0 normal

# 0 texture coordinate

o no02
usemtl 材质.2
f 115/4/1 116/3/1 114/2/1 113/1/1
f 117/4/2 118/3/2 116/2/2 115/1/2
f 119/4/3 120/3/3 118/2/3 117/1/3
f 113/4/4 114/3/4 120/2/4 119/1/4
f 116/4/5 118/3/5 120/2/5 114/1/5
f 117/4/6 115/3/6 113/2/6 119/1/6
f 123/4/1 124/3/1 122/2/1 121/1/1
f 125/4/2 126/3/2 124/2/2 123/1/2
f 127/4/3 128/3/3 126/2/3 125/1/3
f 121/4/4 122/3/4 128/2/4 127/1/4
f 124/4/5 126/3/5 128/2/5 122/1/5
f 125/4/6 123/3/6 121/2/6 127/1/6
f 147/4/1 148/3/1 146/2/1 145/1/1
f 149/4/2 150/3/2 148/2/2 147/1/2
f 151/4/3 152/3/3 150/2/3 149/1/3
f 145/4/4 146/3/4 152/2/4 151/1/4
f 148/4/5 150/3/5 152/2/5 146/1/5
f 149/4/6 147/3/6 145/2/6 151/1/6

usemtl 材质.1
f 131/4/1 132/3/1 130/2/1 129/1/1
f 133/4/2 134/3/2 132/2/2 131/1/2
f 135/4/3 136/3/3 134/2/3 133/1/3
f 129/4/4 130/3/4 136/2/4 135/1/4
f 132/4/5 134/3/5 136/2/5 130/1/5
f 133/4/6 131/3/6 129/2/6 135/1/6
f 139/4/1 140/3/1 138/2/1 137/1/1
f 141/4/2 142/3/2 140/2/2 139/1/2
f 143/4/3 144/3/3 142/2/3 141/1/3
f 137/4/4 138/3/4 144/2/4 143/1/4
f 140/4/5 142/3/5 144/2/5 138/1/5
f 141/4/6 139/3/6 137/2/6 143/1/6

usemtl 材质.1_1
f 155/4/1 156/3/1 154/2/1 153/1/1
f 157/4/2 158/3/2 156/2/2 155/1/2
f 159/4/3 160/3/3 158/2/3 157/1/3
f 153/4/4 154/3/4 160/2/4 159/1/4
f 156/4/5 158/3/5 160/2/5 154/1/5
f 157/4/6 155/3/6 153/2/6 159/1/6

v -831.4241943359375 148.99896240234375 100
v -831.4241943359375 194.67485046386719 100
v -631.4241943359375 148.99896240234375 100
v -631.4241943359375 194.67485046386719 100
v -631.4241943359375 148.99896240234375 -100
v -631.4241943359375 194.67485046386719 -100
v -831.4241943359375 148.99896240234375 -100
v -831.4241943359375 194.67485046386719 -100
v -831.4241943359375 84.03794097900391 100
v -831.4241943359375 129.71382141113281 100
v -631.4241943359375 84.03794097900391 100
v -631.4241943359375 129.71382141113281 100
v -631.4241943359375 84.03794097900391 -100
v -631.4241943359375 129.71382141113281 -100
v -831.4241943359375 84.03794097900391 -100
v -831.4241943359375 129.71382141113281 -100
v -831.4241943359375 131.97799682617188 100
v -831.4241943359375 146.19659423828125 100
v -631.4241943359375 131.97799682617188 100
v -631.4241943359375 146.19659423828125 100
v -631.4241943359375 131.97799682617188 -100
v -631.4241943359375 146.19659423828125 -100
v -831.4241943359375 131.97799682617188 -100
v -831.4241943359375 146.19659423828125 -100
v -831.4241943359375 67.54459381103516 100
v -831.4241943359375 81.76319122314453 100
v -631.4241943359375 67.54459381103516 100
v -631.4241943359375 81.76319122314453 100
v -631.4241943359375 67.54459381103516 -100
v -631.4241943359375 81.76319122314453 -100
v -831.4241943359375 67.54459381103516 -100
v -831.4241943359375 81.76319122314453 -100
v -831.4241943359375 19.60453605651855 100
v -831.4241943359375 65.28041839599609 100
v -631.4241943359375 19.60453605651855 100
v -631.4241943359375 65.28041839599609 100
v -631.4241943359375 19.60453605651855 -100
v -631.4241943359375 65.28041839599609 -100
v -831.4241943359375 19.60453605651855 -100
v -831.4241943359375 65.28041839599609 -100
v -831.4241943359375 3.39213156700134 100
v -831.4241943359375 17.61073112487793 100
v -631.4241943359375 3.39213156700134 100
v -631.4241943359375 17.61073112487793 100
v -631.4241943359375 3.39213156700134 -100
v -631.4241943359375 17.61073112487793 -100
v -831.4241943359375 3.39213156700134 -100
v -831.4241943359375 17.61073112487793 -100
# 48 vertices

# 0 normal

# 0 texture coordinate

o no03
usemtl 材质.2
f 163/4/1 164/3/1 162/2/1 161/1/1
f 165/4/2 166/3/2 164/2/2 163/1/2
f 167/4/3 168/3/3 166/2/3 165/1/3
f 161/4/4 162/3/4 168/2/4 167/1/4
f 164/4/5 166/3/5 168/2/5 162/1/5
f 165/4/6 163/3/6 161/2/6 167/1/6
f 171/4/1 172/3/1 170/2/1 169/1/1
f 173/4/2 174/3/2 172/2/2 171/1/2
f 175/4/3 176/3/3 174/2/3 173/1/3
f 169/4/4 170/3/4 176/2/4 175/1/4
f 172/4/5 174/3/5 176/2/5 170/1/5
f 173/4/6 171/3/6 169/2/6 175/1/6
f 195/4/1 196/3/1 194/2/1 193/1/1
f 197/4/2 198/3/2 196/2/2 195/1/2
f 199/4/3 200/3/3 198/2/3 197/1/3
f 193/4/4 194/3/4 200/2/4 199/1/4
f 196/4/5 198/3/5 200/2/5 194/1/5
f 197/4/6 195/3/6 193/2/6 199/1/6

usemtl 材质.1
f 179/4/1 180/3/1 178/2/1 177/1/1
f 181/4/2 182/3/2 180/2/2 179/1/2
f 183/4/3 184/3/3 182/2/3 181/1/3
f 177/4/4 178/3/4 184/2/4 183/1/4
f 180/4/5 182/3/5 184/2/5 178/1/5
f 181/4/6 179/3/6 177/2/6 183/1/6
f 187/4/1 188/3/1 186/2/1 185/1/1
f 189/4/2 190/3/2 188/2/2 187/1/2
f 191/4/3 192/3/3 190/2/3 189/1/3
f 185/4/4 186/3/4 192/2/4 191/1/4
f 188/4/5 190/3/5 192/2/5 186/1/5
f 189/4/6 187/3/6 185/2/6 191/1/6

usemtl 材质.1_1
f 203/4/1 204/3/1 202/2/1 201/1/1
f 205/4/2 206/3/2 204/2/2 203/1/2
f 207/4/3 208/3/3 206/2/3 205/1/3
f 201/4/4 202/3/4 208/2/4 207/1/4
f 204/4/5 206/3/5 208/2/5 202/1/5
f 205/4/6 203/3/6 201/2/6 207/1/6

v -1000 0 1000
v 1000 0 1000
v -1000 0 -1000
v 1000 0 -1000
# 4 vertices

# 0 normal

# 0 texture coordinate

o floor
usemtl 材质
f 210/4/5 212/3/5 211/2/5 209/1/5

